<svg class="w-6 h-6" width="24" height="24" viewBox="0 0 24 24" fill="none" xmlns="http://www.w3.org/2000/svg"><path d="M11 4V2C11 1.44772 11.4477 1 12 1C12.5523 1 13 1.44772 13 2V4C13 4.55228 12.5523 5 12 5C11.4477 5 11 4.55228 11 4Z" fill="#686583" style="fill-opacity:1;"/><path d="M4 14V10C4 9.44772 4.44772 9 5 9C5.55228 9 6 9.44772 6 10V14L6.00488 14.25C6.05693 15.4957 6.49587 16.697 7.26367 17.6846C8.08223 18.7374 9.22835 19.4879 10.5205 19.8174H10.5215C11.0265 19.9449 11.5567 20.1829 12 20.5918C12.3843 20.2373 12.8333 20.0107 13.2754 19.874L13.4785 19.8174C14.9292 19.4472 16.1895 18.5485 17.0127 17.2979C17.3163 16.8368 17.9362 16.7093 18.3975 17.0127C18.8587 17.3163 18.9869 17.9362 18.6836 18.3975C17.5859 20.0652 15.9045 21.263 13.9697 21.7559L13.9678 21.7568C13.6815 21.8291 13.4688 21.9453 13.3281 22.0859L12.707 22.707C12.3165 23.0976 11.6835 23.0976 11.293 22.707L10.6719 22.0859C10.5312 21.9453 10.3185 21.8291 10.0322 21.7568L10.0303 21.7559C8.30617 21.3171 6.77757 20.3166 5.68555 18.9121C4.66173 17.5953 4.07613 15.994 4.00684 14.333L4 14Z" fill="#686583" style="fill-opacity:1;"/><path d="M18 13.3428V10C18 9.44772 18.4477 9 19 9C19.5523 9 20 9.44772 20 10V13.3428L19.9951 13.4453C19.9439 13.9495 19.5178 14.3428 19 14.3428C18.4822 14.3428 18.0561 13.9495 18.0049 13.4453L18 13.3428Z" fill="#686583" style="fill-opacity:1;"/><path d="M5.21977 4.96875C5.67344 4.65404 6.2965 4.76623 6.61137 5.21973C6.92606 5.67338 6.81384 6.29645 6.36039 6.61133C5.50648 7.20368 5.08045 7.79986 4.96977 8.24219V8.24316C4.90126 8.5166 4.80586 8.78485 4.68852 9.0498C4.85716 8.99452 5.03921 8.9844 5.21586 9.02344C5.4873 9.08351 5.72162 9.25439 5.86235 9.49414C6.10545 9.90828 6.30191 10.1706 6.52739 10.3955C6.67575 10.5435 6.85166 10.6882 7.08598 10.8545C7.48875 10.6538 7.75568 10.4857 7.95707 10.3213C8.21523 10.1105 8.40803 9.87317 8.64457 9.48242L8.71879 9.375C8.90763 9.13889 9.19597 8.99917 9.50297 9C9.85361 9.00103 10.1784 9.18545 10.3584 9.48633C10.6144 9.91434 10.8284 10.1679 11.0899 10.376C11.2972 10.541 11.5621 10.6998 11.9541 10.8848L12.3907 11.0791L12.4834 11.124C12.9273 11.3683 13.123 11.9142 12.9209 12.3906C12.7185 12.8672 12.1893 13.106 11.7051 12.9561L11.6094 12.9209L11.1055 12.6963C10.6246 12.4697 10.2105 12.2315 9.84477 11.9404C9.71917 11.8405 9.60203 11.7372 9.49223 11.6289C9.40739 11.7104 9.31875 11.7917 9.2227 11.8701C8.74644 12.259 8.16397 12.5759 7.40727 12.9131C7.10177 13.0492 6.74853 13.0235 6.46586 12.8447C5.92938 12.5053 5.49418 12.1905 5.1143 11.8115C4.96612 11.6637 4.83385 11.5091 4.70707 11.3486C4.45127 11.4819 4.19327 11.5951 3.91899 11.6855C3.34496 11.8749 2.75559 11.9547 2.06254 11.998C1.64466 12.0242 1.25428 11.7873 1.085 11.4043C0.915854 11.0215 1.00335 10.5736 1.30375 10.2822C2.32731 9.28991 2.85289 8.46507 3.03032 7.75684C3.30788 6.64762 4.17423 5.69412 5.21977 4.96875ZM12 3C14.1589 3 16.1932 3.53775 17.7754 4.36328C19.3073 5.16258 20.6164 6.34436 20.9698 7.75781H20.9707L21.0518 8.05176C21.2652 8.74059 21.6562 9.44564 22.6241 10.2188C22.9391 10.4704 23.0725 10.8867 22.962 11.2744C22.8514 11.662 22.5184 11.9455 22.1182 11.9932C21.3836 12.0807 20.7246 12.0716 20.0713 11.8496C19.821 11.7645 19.5871 11.6518 19.3614 11.5186C19.3112 11.5859 19.2598 11.6532 19.2032 11.7178C18.8442 12.1268 18.4022 12.4182 17.9024 12.6758C17.4114 12.9287 16.8077 12.7361 16.5547 12.2451C16.3018 11.7542 16.4954 11.1514 16.9864 10.8984C17.3732 10.6991 17.5711 10.5445 17.6993 10.3984C17.8217 10.2589 17.9328 10.0668 18.044 9.70605L18.0889 9.58691C18.21 9.31985 18.4441 9.11732 18.7305 9.03711C18.9135 8.98589 19.1035 8.99026 19.2803 9.04199C19.1771 8.77371 19.0954 8.50713 19.0293 8.24219V8.24121C18.882 7.65482 18.1916 6.83687 16.8497 6.13672C15.5569 5.4623 13.8411 5 12 5C11.3212 5 10.6595 5.06203 10.0274 5.17578L9.92582 5.18945C9.42043 5.22846 8.95801 4.87873 8.86625 4.36914C8.76843 3.82561 9.12937 3.30586 9.67289 3.20801L10.2383 3.11914C10.81 3.0418 11.3991 3 12 3Z" fill="#686583" style="fill-opacity:1;"/><path d="M1.29298 1.29298C1.65909 0.926863 2.2381 0.904269 2.63087 1.22462L2.70704 1.29298L22.707 21.293L22.7754 21.3692C23.0958 21.7619 23.0732 22.3409 22.707 22.707C22.3409 23.0732 21.7619 23.0958 21.3692 22.7754L21.293 22.707L1.29298 2.70704L1.22462 2.63087C0.904269 2.2381 0.926863 1.65909 1.29298 1.29298Z" fill="#686583" style="fill-opacity:1;"/></svg>