<svg class="w-6 h-6" width="24" height="24" viewBox="0 0 24 24" fill="none" xmlns="http://www.w3.org/2000/svg"><path d="M14 5C14 3.89543 13.1046 3 12 3C10.8954 3 10 3.89543 10 5C10 6.10457 10.8954 7 12 7C13.1046 7 14 6.10457 14 5ZM16 5C16 7.20914 14.2091 9 12 9C9.79086 9 8 7.20914 8 5C8 2.79086 9.79086 1 12 1C14.2091 1 16 2.79086 16 5Z" fill="#686583" style="fill-opacity:1;"/><path d="M17.4886 7L17.7346 7.0127C18.3072 7.06466 18.8551 7.27969 19.3108 7.63574C19.8256 8.03797 20.1937 8.59761 20.3616 9.22852H20.3626L22.888 18.1885V18.1904L22.93 18.3584C23.0163 18.7529 23.0221 19.1616 22.9466 19.5596C22.8602 20.0144 22.6695 20.4435 22.3899 20.8125C22.1103 21.1813 21.7487 21.4805 21.3343 21.6865C20.9717 21.8667 20.5771 21.9716 20.1741 21.9951L20.0003 22H3.98172C3.52858 21.9917 3.08315 21.8808 2.67898 21.6758C2.27476 21.4707 1.92201 21.1763 1.64773 20.8154C1.37353 20.4546 1.18438 20.0361 1.095 19.5918C1.00566 19.1475 1.01875 18.6888 1.13211 18.25L1.13601 18.2344L3.63113 9.19434L3.63211 9.19043L3.7073 8.95898C3.90316 8.4296 4.24502 7.96456 4.69559 7.61914C5.2108 7.22428 5.84045 7.00675 6.48953 7H17.4886ZM6.34988 9.01465C6.19153 9.04211 6.0412 9.10733 5.91238 9.20605C5.74075 9.33759 5.61635 9.52132 5.55789 9.72949L3.06766 18.749L3.06863 18.75C3.03086 18.8962 3.0262 19.0492 3.05594 19.1973C3.08573 19.3454 3.14908 19.4852 3.24051 19.6055C3.33191 19.7257 3.44957 19.8242 3.58426 19.8926C3.71877 19.9607 3.86708 19.9972 4.01785 20H19.9993C20.1536 19.9999 20.3064 19.9642 20.4446 19.8955C20.5826 19.8269 20.703 19.7273 20.7962 19.6045C20.8894 19.4815 20.9529 19.3381 20.9817 19.1865C21.0104 19.0354 21.0035 18.8796 20.9622 18.7314L18.4378 9.77148C18.4358 9.76444 18.4337 9.75709 18.4319 9.75C18.3769 9.53677 18.2529 9.34753 18.0794 9.21191C17.9491 9.11017 17.7962 9.04271 17.635 9.01465L17.472 9H6.51004L6.34988 9.01465Z" fill="#686583" style="fill-opacity:1;"/></svg>